# xmcd
#
# Track frame offsets: 
#        150
#        32310
#        64495
#        84550
#
# Disc length: 1389 seconds
#
# Revision: 4
# Processed by: cddbd v1.5.2PL0 Copyright (c) Steve Scherf et al.
# Submitted via: ExactAudioCopy v1.3
#
DISCID=2a056b04
DTITLE=Bell Biv DeVoe - Poison [CDM)
DYEAR=1990
DGENRE=R&B
TTITLE0=Poison (Mental Mix)
TTITLE1=Poison (Smoothed Out Mix)
TTITLE2=Poison (R&B Mix)
TTITLE3=Poison (LP Version)
EXTD=
EXTT0=
EXTT1=
EXTT2=
EXTT3=
PLAYORDER=
